Info ::
Format                           : AVI
Format/Info                      : Audio Video Interleave
File size                        : 81.8 MiB
Duration                         : 3mn 34s
Overall bit rate                 : 3 191 Kbps


Video Info ::
ID                               : 0
Format                           : AVC
Format/Info                      : Advanced Video Codec
Format profile                   : High@L5.1
Format settings, CABAC           : Yes
Format settings, ReFrames        : 2 frames
Codec ID                         : H264
Duration                         : 10s 0ms
Bit rate                         : 2 988 Kbps
Width                            : 1 280 pixels
Height                           : 720 pixels
Display aspect ratio             : 16:9
Frame rate                       : 30.000 fps
Color space                      : YUV
Chroma subsampling               : 4:2:0
Bit depth                        : 8 bits
Scan type                        : Progressive
Bits/(Pixel*Frame)               : 0.108
Stream size                      : 76.6 MiB (94%)


Audio Info ::
ID                               : 1
Format                           : MPEG Audio
Format version                   : Version 1
Format profile                   : Layer 3
Codec ID                         : 55
Codec ID/Hint                    : MP3
Duration                         : 3mn 34s
Bit rate mode                    : Constant
Bit rate                         : 192 Kbps
Channel(s)                       : 2 channels
Sampling rate                    : 44.1 KHz
Compression mode                 : Lossy
Stream size                      : 4.92 MiB (6%)



Screen :: 
 
http://i.minus.com/iRQRItHD0DSqL.png
 
http://i.minus.com/ib0mTc0T69ynOp.png
 
http://i.minus.com/iryvkraFoybFu.png
 
http://i.minus.com/im8Hxg0Gvxxgn.png
 
http://i.minus.com/idtrs2CPzxwrC.jpg